# AST/ASF file generated using VICON BodyLanguage
# -----------------------------------------------
:version 1.10
:name VICON
:units
  mass 1.0
  length 0.45
  angle deg
:documentation
   .ast/.asf automatically generated from VICON data using
   VICON BodyBuilder and BodyLanguage model FoxedUp or BRILLIANT.MOD
:root
   order TX TY TZ RX RY RZ
   axis XYZ
   position 0 0 0  
   orientation 0 -0 0 
:bonedata
  begin
     id 1 
     name lhipjoint
     direction 0.432694 -0.693742 0.575759 
     length 2.19277 
     axis 0 -0 0  XYZ
  end
  begin
     id 2 
     name lfemur
     direction 0.34202 -0.939693 0  
     length 6.69022  
     axis 0 -0 20  XYZ
    dof rx ry rz
    limits (-160.0 20.0)
           (-70.0 70.0)
           (-60.0 70.0)
  end
  begin
     id 3 
     name ltibia
     direction 0.34202 -0.939693 0   
     length 6.50337   
     axis 0 -0 20   XYZ
    dof rx
    limits (-10.0 170.0)
  end
  begin
     id 4 
     name lfoot
     direction 0.158999 -0.435969 0.885805   
     length 2.70564   
     axis -90 -1.13533e-015 20   XYZ
    dof rx rz
    limits (-45.0 90.0)
           (-70.0 20.0)
  end
  begin
     id 5 
     name ltoes
     direction -0.00592919 0.00964381 0.999936   
     length 1.29929   
     axis -90 -1.13533e-015 20   XYZ
    dof rx
    limits (-90.0 20.0)
  end
  begin
     id 6 
     name rhipjoint
     direction -0.414359 -0.700339 0.581234   
     length 2.17212  
     axis 0 -0 0  XYZ 
  end
  begin
     id 7 
     name rfemur
     direction -0.34202 -0.939693 0   
     length 7.17659   
     axis 0 -0 -20   XYZ
    dof rx ry rz
    limits (-160.0 20.0)
           (-70.0 70.0)
           (-70.0 60.0)
  end
  begin
     id 8 
     name rtibia
     direction -0.34202 -0.939693 0   
     length 6.36669   
     axis 0 -0 -20   XYZ
    dof rx
    limits (-10.0 170.0)
 end
 begin
     id 9 
     name rfoot
     direction -0.137064 -0.37658 0.916188   
     length 2.22351  
     axis -90 1.13533e-015 -20   XYZ
    dof rx rz
    limits (-45.0 90.0)
           (-20.0 70.0)
  end
  begin
     id 10 
     name rtoes
     direction -0.000784077 -0.00289101 0.999996   
     length 1.09522   
     axis -90 1.13533e-015 -20   XYZ
    dof rx
    limits (-90.0 20.0)
  end
  begin
     id 11 
     name lowerback
     direction -0.0176242 0.984912 -0.172157   
     length 1.65301   
     axis 0 -0 0   XYZ
    dof rx ry rz
    limits (-20.0 45.0)
           (-30.0 30.0)
           (-30.0 30.0)
  end
  begin
     id 12 
     name upperback
     direction -0.00218128 0.998776 -0.0494072   
     length 1.67776   
     axis 0 -0 0   XYZ
    dof rx ry rz
    limits (-20.0 45.0)
           (-30.0 30.0)
           (-30.0 30.0)
  end
  begin
     id 13 
     name thorax
     direction 0.00544186 0.999658 0.0255711   
     length 1.72293   
     axis 0 -0 0   XYZ
    dof rx ry rz
    limits (-20.0 45.0)
           (-30.0 30.0)
           (-30.0 30.0)
  end
  begin
     id 14 
     name lowerneck
     direction -0.105325 0.983841 0.144785   
     length 2.14226   
     axis 0 -0 0   XYZ
    dof rx ry rz
    limits (-20.0 45.0)
           (-30.0 30.0)
           (-30.0 30.0)
  end
  begin
     id 15 
     name upperneck
     direction 0.0547957 0.988053 -0.144041   
     length 2.17508   
     axis 0 -0 0   XYZ
    dof rx ry rz
    limits (-20.0 45.0)
           (-30.0 30.0)
           (-30.0 30.0)
  end
  begin
     id 16
     name head
     direction 0.0247488 0.997534 -0.0656813  
     length 2.20048  
     axis 0 -0 0   XYZ
    dof rx ry rz
    limits (-20.0 45.0)
           (-30.0 30.0)
           (-30.0 30.0)
  end
  begin
     id 17 
     name lclavicle
     direction 0.820559 0.567247 -0.0701026  
     length 4.09615  
     axis 0 -0 0   XYZ
    dof ry rz
    limits (-20.0 10.0)
           (0.0 20.0)
  end
  begin
     id 18 
     name lhumerus
     direction 0.999977 -0.0067566 -9.96392e-005   
     length 4.59333   
     axis -180 -30 -90   XYZ
    dof rx ry rz
    limits (-60.0 90.0)
           (-90.0 90.0)
           (-90.0 90.0)
  end
  begin
     id 19
     name lradius
     direction 1 -4.48982e-011 -2.53425e-027   
     length 2.81151   
     axis -180 -30 -90   XYZ
    dof rx
    limits (-10.0 170.0)
  end
  begin
     id 20
     name lwrist
     direction 1 -4.48939e-011 -7.39254e-028   
     length 1.40576   
     axis 2.56395e-016 90 90   XYZ
    dof ry
    limits (-180.0 0.0)
 end
  begin
     id 21 
     name lhand
     direction 1 -4.48939e-011 -1.47851e-027   
     length 0.895651   
     axis 9.43423e-016 90 90   XYZ
    dof rx rz
    limits (-90.0 90.0)
           (-45.0 45.0)
  end
  begin
     id 22 
     name lfingers
     direction 1 -4.48978e-011 -2.95702e-027   
     length 0.722097   
     axis 1.88685e-015 90 90   XYZ
    dof rx
    limits (0.0 90.0)
  end
  begin
     id 23
     name lthumb
     direction 0.707107 -6.34931e-011 0.707107   
     length 1.03679   
     axis -90 45 -9.86935e-015   XYZ
    dof rx rz
    limits (-45.0 45.0)
           (-45.0 45.0)
  end
  begin
     id 24 
     name rclavicle
     direction -0.831414 0.553102 -0.0531864   
     length 4.24872  
     axis 0 -0 0   XYZ 
    dof ry rz
    limits (-10.0 20.0)
           (-20.0 0.0)
  end
  begin
     id 25 
     name rhumerus
     direction -0.999916 -0.000939607 0.0129331  
     length 4.74834   
     axis -180 30 90   XYZ
    dof rx ry rz
    limits (-90.0 60.0)
           (-90.0 90.0)
           (-90.0 90.0)
  end
  begin
     id 26 
     name rradius
     direction -1 -4.48956e-011 -1.31752e-027   
     length 2.79907   
     axis -180 30 90   XYZ
    dof rx
    limits (-10.0 170.0)
  end
  begin
     id 27 
     name rwrist
     direction -1 -4.4897e-011 -7.39254e-028   
     length 1.39954   
     axis 2.56395e-016 -90 -90   XYZ
    dof ry
    limits (-180.0 0.0)
  end
  begin
     id 28
     name rhand
     direction -0.999997 -0.00250697 0.000800838   
     length 0.953304   
     axis 9.43423e-016 -90 -90   XYZ
    dof rx rz
    limits (-90.0 90.0)
           (-45.0 45.0)
  end
  begin
     id 29
     name rfingers
     direction -1 -4.48954e-011 -2.95702e-027   
     length 0.763342   
     axis 1.88685e-015 -90 -90   XYZ
    dof rx
    limits (0.0 90.0)
  end
  begin
     id 30
     name rthumb
     direction -0.709701 -0.00217037 0.7045   
     length 1.10115   
     axis -90 -45 9.86935e-015   XYZ
    dof rx rz
    limits (-45.0 45.0)
           (-45.0 45.0)
  end
:hierarchy
  begin
    root lhipjoint rhipjoint lowerback
    lhipjoint lfemur
    lfemur ltibia
    ltibia lfoot
    lfoot ltoes
    rhipjoint rfemur
    rfemur rtibia
    rtibia rfoot
    rfoot rtoes
    lowerback upperback
    upperback thorax
    thorax lowerneck lclavicle rclavicle
    lowerneck upperneck
    upperneck head
    lclavicle lhumerus
    lhumerus lradius
    lradius lwrist
    lwrist lhand lthumb
    lhand lfingers
    rclavicle rhumerus
    rhumerus rradius
    rradius rwrist
    rwrist rhand rthumb
    rhand rfingers
  end

#!OML:ASF G:\ViconDB\ViconDB\414\test\team2\shane.ASF
:FULLY-SPECIFIED
:DEGREES
81
root 1.23459 16.6664 -18.408 -3.86431 -7.33393 -2.6128
lowerback 9.00746 3.2864 2.74573
upperback 3.08899 4.58562 -0.411781
thorax -1.58224 2.29741 -2.41983
lowerneck -15.4988 -3.08221 -4.30385
upperneck 15.4856 -4.87749 8.92038
head 7.6602 -1.74672 3.10725
rclavicle -1.6847e-014 2.38542e-015
rhumerus -19.1594 15.0983 -99.5024
rradius 40.7988
rwrist 31.8819
rhand -32.5908 -13.8959
rfingers 7.12502
rthumb -5.81918 -43.796
lclavicle -1.6847e-014 2.38542e-015
lhumerus -48.2326 0.556892 76.7049
lradius 11.3733
lwrist -32.0627
lhand -34.6552 8.28841
lfingers 7.12502
lthumb -7.81202 38.1241
rfemur 24.0643 -7.17281 13.0092
rtibia 25.2166
rfoot -4.14285 12.6821
rtoes -30.7581
lfemur -15.6364 13.8589 -16.1976
ltibia 35.4056
lfoot -22.7211 -16.4923
ltoes -6.37726
82
root 1.24772 16.6879 -18.2332 -3.94193 -7.12271 -2.23392
lowerback 8.91487 3.14552 2.07238
upperback 3.0698 4.33955 -0.381398
thorax -1.61975 2.17125 -1.98666
lowerneck -15.542 -3.04499 -4.4858
upperneck 15.6078 -4.77895 8.85307
head 7.70266 -1.71378 3.12771
rclavicle -7.91163e-014 4.37326e-015
rhumerus -19.7915 15.6688 -99.3733
rradius 40.3165
rwrist 31.4904
rhand -32.4589 -14.495
rfingers 7.12502
rthumb -5.69177 -44.3986
lclavicle -7.91163e-014 4.37326e-015
lhumerus -48.0482 -0.0484489 77.9654
lradius 11.7458
lwrist -31.2238
lhand -34.5917 7.78947
lfingers 7.12502
lthumb -7.75071 37.6274
rfemur 22.0671 -7.33047 12.1663
rtibia 29.6991
rfoot -2.64876 13.4855
rtoes -28.1913
lfemur -14.6362 14.0387 -16.658
ltibia 34.747
lfoot -22.8473 -16.7069
ltoes -5.99844
83
root 1.26931 16.7104 -18.0628 -4.12849 -6.80582 -2.21183
lowerback 9.22906 2.95693 2.17049
upperback 2.90177 4.10355 -0.480969
thorax -1.96341 2.0472 -2.14732
lowerneck -15.2273 -3.0113 -4.44105
upperneck 15.6403 -4.76897 8.9293
head 7.65804 -1.7067 3.14908
rclavicle 1.50579e-014 -5.1684e-015
rhumerus -20.5819 15.3173 -99.4041
rradius 39.5583
rwrist 32.0485
rhand -32.2273 -14.1063
rfingers 7.12502
rthumb -5.46818 -44.0157
lclavicle 1.50579e-014 -5.1684e-015
lhumerus -48.0986 -1.6958 79.6157
lradius 12.2963
lwrist -29.5005
lhand -34.8315 6.9329
lfingers 7.12502
lthumb -7.98219 36.7622
rfemur 20.2577 -7.57692 11.7427
rtibia 33.9378
rfoot -1.08537 14.3168
rtoes -26.002
lfemur -13.4428 13.9282 -16.708
ltibia 34.0225
lfoot -23.0177 -16.8021
ltoes -6.0157
84
root 1.28799 16.746 -17.8877 -4.34417 -6.6174 -1.703
lowerback 9.29208 2.8457 1.43811
upperback 2.93574 3.891 -0.447568
thorax -2.02593 1.93959 -1.68622
lowerneck -15.1569 -2.97866 -4.79505
upperneck 15.6469 -4.65386 8.97981
head 7.64793 -1.67046 3.23891
rclavicle 7.45443e-016 -7.95139e-015
rhumerus -21.2109 15.8151 -99.166
rradius 39.1425
rwrist 31.0389
rhand -31.9372 -14.3376
rfingers 7.12502
rthumb -5.18807 -44.254
lclavicle 7.45443e-016 -7.95139e-015
lhumerus -47.8513 -2.88311 81.5238
lradius 12.8101
lwrist -27.9506
lhand -34.7981 7.5061
lfingers 7.12502
lthumb -7.94991 37.3366
rfemur 18.466 -7.67691 10.8122
rtibia 37.946
rfoot 0.885544 14.7342
rtoes -22.924
lfemur -12.1775 13.5202 -17.3066
ltibia 33.2192
lfoot -23.14 -16.455
ltoes -5.9179
85
root 1.29823 16.7654 -17.7245 -4.56825 -6.52444 -1.75865
lowerback 9.49606 2.72566 1.24365
upperback 2.95722 3.71945 -0.310237
thorax -2.14429 1.85207 -1.4293
lowerneck -15.1576 -2.94836 -5.01369
upperneck 15.7273 -4.58409 9.0657
head 7.67592 -1.64121 3.31331
rclavicle -2.82771e-014 4.37326e-015
rhumerus -21.7757 15.5382 -98.824
rradius 38.2742
rwrist 31.8758
rhand -31.7995 -13.6569
rfingers 7.12502
rthumb -5.0551 -43.5766
lclavicle -2.82771e-014 4.37326e-015
lhumerus -47.3181 -3.15724 82.3778
lradius 12.9879
lwrist -28.1098
lhand -34.7015 7.55113
lfingers 7.12502
lthumb -7.8567 37.3851
rfemur 16.7414 -7.62671 10.6725
rtibia 41.6989
rfoot 2.84458 14.6258
rtoes -19.1427
lfemur -10.9314 13.3827 -17.1824
ltibia 32.4458
lfoot -23.2378 -16.4311
ltoes -5.90997
86
root 1.31272 16.7852 -17.5634 -4.70411 -6.23834 -1.47105
lowerback 9.65705 2.53839 0.905491
upperback 2.92096 3.43835 -0.389705
thorax -2.29457 1.71043 -1.3017
lowerneck -15.0995 -2.891 -5.12129
upperneck 15.7882 -4.50509 9.16015
head 7.68408 -1.60198 3.37321
rclavicle 3.44891e-014 2.38542e-015
rhumerus -22.5082 15.5875 -98.8517
rradius 37.7834
rwrist 31.5478
rhand -31.4462 -13.8935
rfingers 7.12502
rthumb -4.71404 -43.821
lclavicle 3.44891e-014 2.38542e-015
lhumerus -47.0818 -4.72844 84.0287
lradius 13.6127
lwrist -26.3562
lhand -34.8862 7.28347
lfingers 7.12502
lthumb -8.03493 37.1107
rfemur 15.0163 -8.02121 9.98969
rtibia 45.2389
rfoot 3.63519 14.244
rtoes -16.0872
lfemur -9.80972 13.1233 -17.5126
ltibia 31.6143
lfoot -23.247 -16.4201
ltoes -5.50791
